<?xml version="1.0" standalone="no"?><!DOCTYPE svg PUBLIC "-//W3C//DTD SVG 1.1//EN" "http://www.w3.org/Graphics/SVG/1.1/DTD/svg11.dtd"><svg t="1748747312114" class="icon" viewBox="0 0 1088 1024" version="1.1" xmlns="http://www.w3.org/2000/svg" p-id="4639" xmlns:xlink="http://www.w3.org/1999/xlink" width="212.5" height="200"><path d="M543.11328125 90.125a421.875 421.875 0 1 1 0 843.75 421.875 421.875 0 0 1 0-843.75zM484.26171875 730.63671875l-11.23242188 1.63476563 0.84375001 3.05859375c20.0390625 73.98632813 49.88671875 126.03515625 66.76171874 130.83398437l2.47851563 0.36914063c16.2421875 0 47.98828125-53.26171875 69.08203125-130.67578126l0.84375-3.53320312-11.07421875-1.6875a456.46875 456.46875 0 0 0-117.703125 0z m-76.72851563 17.19140625l-10.65234374 3.375c-24.2578125 8.2265625-47.77734375 18.61523438-70.18945313 31.0078125l-7.22460938 4.16601563 5.00976563 4.16601562a353.53125 353.53125 0 0 0 105.94335938 57.26953125l16.03124999 4.95703125-3.90234375-7.43554688a495.4921875 495.4921875 0 0 1-32.58984375-88.43554687l-2.42578125-9.0703125z m271.10742188-0.10546875l-2.3203125 9.01757813a493.59375 493.59375 0 0 1-32.58984375 88.48828124l-3.95507813 7.48828125 15.97851563-4.90429687a353.21484375 353.21484375 0 0 0 105.99609375-57.375l5.00976563-4.21875-6.90820313-3.95507813a428.88867188 428.88867188 0 0 0-70.2421875-31.06054687l-10.96875-3.48046875z m216.94921875-202.02539063h-190.16015625l-0.6328125 18.45703126c-1.58203125 34.59375-4.8515625 68.23828125-9.59765625 100.40624999l-2.79492188 16.98046875 13.92187501 4.27148438a497.28515625 497.28515625 0 0 1 97.24218749 44.296875l12.234375 7.64648437 5.484375-6.59179687a352.58203125 352.58203125 0 0 0 73.66992188-178.6640625l0.6328125-6.80273438zM380.69140625 545.59179688H190.58398437l0.63281251 6.85546875a352.37109375 352.37109375 0 0 0 73.6171875 178.55859374l5.37890625 6.53906251 12.28710937-7.59375a496.65234375 496.65234375 0 0 1 97.40039063-44.03320313l13.86914062-4.27148438-2.7421875-17.08593749a1005.64453125 1005.64453125 0 0 1-9.59765625-100.45898438l-0.68554687-18.45703125z m257.18554688 0H448.03320312l0.73828125 19.6171875c1.37109375 27.421875 3.90234375 54.73828125 7.64648438 81.84374999l2.90039062 19.35351563 12.39257813-1.8984375a522.28125 522.28125 0 0 1 142.64648438-0.15820313l12.33984374 1.8984375 3.05859375-19.40625c3.74414063-27.10546875 6.328125-54.421875 7.59375-81.73828125l0.58007813-19.51171875z m177.87304687-259.40039063l-12.234375 7.69921875c-30.74414063 18.19335938-63.28125 33.06445313-97.18945313 44.296875l-14.02734374 4.21875 3.69140625 23.15039063c4.21875 29.90039063 7.11914063 60.01171875 8.6484375 90.17578124l0.73828125 22.62304688h190.21289062l-0.6328125-6.85546875a352.58203125 352.58203125 0 0 0-73.72265625-178.6640625l-5.484375-6.64453125zM459.42382812 357.59375l-2.953125 19.51171875c-3.74414063 27.10546875-6.328125 54.421875-7.59375 81.73828125l-0.73828125 19.45898438 189.94921876 0.05273437-0.52734376-16.29492188a937.72265625 937.72265625 0 0 0-8.49023437-90.86132812l-2.21484375-13.55273438-12.39257813 1.95117188a522.59765625 522.59765625 0 0 1-142.64648437 0l-12.39257813-2.00390625zM270.10742187 286.296875l-5.37890624 6.59179688a353.00390625 353.00390625 0 0 0-73.30078125 177.50390624l-0.79101563 7.80468751 190.16015625 0.05273437 0.84375-22.5703125c1.52929688-30.21679688 4.37695313-60.328125 8.6484375-90.28125l3.5859375-23.203125-11.8125-3.53320313a497.33789063 497.33789063 0 0 1-102.3046875-46.30078125l-9.65039063-6.06445312z m342.93164063 5.2734375l-0.73828125-2.953125c-20.0390625-74.0390625-49.88671875-126.03515625-66.76171875-130.83398438l-2.42578125-0.36914062c-16.29492188 0-48.04101563 53.26171875-69.08203125 130.62304688l-0.94921875 3.53320312 10.96875 1.74023437c12.91992188 1.6875 25.99804688 2.84765625 39.18164063 3.42773438l19.828125 0.421875a460.8984375 460.8984375 0 0 0 77.73046874-6.69726563l-7.75195312 1.10742188z m-166.640625-120.33984375l-15.92578125 4.95703125a353.42578125 353.42578125 0 0 0-105.99609375 57.26953125l-4.95703125 4.06054687 7.171875 4.21875c22.41210938 12.39257813 45.87890625 22.83398438 70.13671875 31.11328125l10.65234375 3.32226563 2.47851563-9.0703125a495.4921875 495.4921875 0 0 1 32.64257812-88.48828125l3.84960938-7.3828125z m193.32421875 0l3.95507813 7.43554687c12.49804688 25.20703125 23.51953125 55.0546875 32.64257812 88.54101563l2.3203125 8.91210937 10.91601563-3.48046875a431.3671875 431.3671875 0 0 0 70.24218749-31.0078125l6.9609375-4.06054687-5.00976562-4.11328125a354.11132813 354.11132813 0 0 0-105.99609375-57.32226563l-16.03125-4.95703125z" fill="#000000" p-id="4640"></path></svg>